<svg xmlns="http://www.w3.org/2000/svg" version="1.1" xmlns:xlink="http://www.w3.org/1999/xlink" xmlns:svgjs="http://svgjs.dev/svgjs" width="1000" height="999" viewBox="0 0 1000 999"><g transform="matrix(1,0,0,1,-0.215743440233382,-0.21552769679306039)"><svg viewBox="0 0 343 343" data-background-color="#ffffff" preserveAspectRatio="xMidYMid meet" height="999" width="1000" xmlns="http://www.w3.org/2000/svg" xmlns:xlink="http://www.w3.org/1999/xlink"><g id="tight-bounds" transform="matrix(1,0,0,1,0.0740000000000407,0.07400000000001228)"><svg viewBox="0 0 342.85155851775386 342.85155851775386" height="342.85155851775386" width="342.85155851775386"><g><svg></svg></g><g><svg viewBox="0 0 342.85155851775386 342.85155851775386" height="342.85155851775386" width="342.85155851775386"><g><path d="M0 171.426c0-94.676 76.75-171.426 171.426-171.426 94.676 0 171.426 76.75 171.426 171.426 0 94.676-76.75 171.426-171.426 171.426-94.676 0-171.426-76.75-171.426-171.426zM171.426 329.539c87.324 0 158.114-70.79 158.113-158.113 0-87.324-70.79-158.114-158.113-158.114-87.324 0-158.114 70.79-158.114 158.114 0 87.324 70.79 158.114 158.114 158.113z" data-fill-palette-color="tertiary" fill="#233565" stroke="transparent"></path><ellipse rx="164.56874808852186" ry="164.56874808852186" cx="171.42577925887693" cy="171.42577925887693" fill="#233565" stroke="transparent" stroke-width="0" fill-opacity="1" data-fill-palette-color="tertiary"></ellipse></g><g transform="matrix(1,0,0,1,64.84655864529837,97.61717881526786)"><svg viewBox="0 0 213.1584412271571 147.61720088721813" height="147.61720088721813" width="213.1584412271571"><g><svg viewBox="0 0 213.1584412271571 147.61720088721813" height="147.61720088721813" width="213.1584412271571"><g><svg viewBox="0 0 213.1584412271571 147.61720088721813" height="147.61720088721813" width="213.1584412271571"><g><svg viewBox="0 0 213.1584412271571 147.61720088721813" height="147.61720088721813" width="213.1584412271571"><g id="textblocktransform"><svg viewBox="0 0 213.1584412271571 147.61720088721813" height="147.61720088721813" width="213.1584412271571" id="textblock"><g><svg viewBox="0 0 213.1584412271571 147.61720088721813" height="147.61720088721813" width="213.1584412271571"><g transform="matrix(1,0,0,1,0,0)"><svg width="213.1584412271571" viewBox="3.549999952316284 -36.650001525878906 53.5 37.05000305175781" height="147.61720088721813" data-palette-color="#ffffff"><path d="M5.65 0L5.65 0Q4.9 0 4.23-0.38 3.55-0.75 3.55-1.5L3.55-1.5 3.55-34.5Q3.55-35.65 4.23-36.1 4.9-36.55 5.65-36.55L5.65-36.55Q6.45-36.55 7.03-36.25 7.6-35.95 8.08-35.38 8.55-34.8 9-33.9L9-33.9 16.9-18.85 24.8-33.9Q25.3-34.8 25.78-35.38 26.25-35.95 26.83-36.25 27.4-36.55 28.15-36.55L28.15-36.55Q29-36.55 29.63-36.1 30.25-35.65 30.25-34.5L30.25-34.5 30.25-1.5Q30.25-0.75 29.6-0.38 28.95 0 28.15 0L28.15 0Q27.35 0 26.7-0.38 26.05-0.75 26.05-1.5L26.05-1.5 26.05-27.75 18.45-13.55Q18.1-12.95 17.7-12.68 17.3-12.4 16.85-12.4L16.85-12.4Q16.5-12.4 16.07-12.65 15.65-12.9 15.3-13.55L15.3-13.55 7.75-27.95 7.75-1.5Q7.75-0.75 7.1-0.38 6.45 0 5.65 0ZM46.1 0.4L46.1 0.4Q42.9 0.4 40.5-0.58 38.1-1.55 36.8-2.88 35.5-4.2 35.5-5.25L35.5-5.25Q35.5-5.75 35.77-6.28 36.05-6.8 36.47-7.18 36.9-7.55 37.35-7.55L37.35-7.55Q37.95-7.55 38.52-6.95 39.1-6.35 39.97-5.53 40.85-4.7 42.25-4.1 43.65-3.5 45.9-3.5L45.9-3.5Q48-3.5 49.55-4.17 51.1-4.85 51.97-6.23 52.85-7.6 52.85-9.7L52.85-9.7Q52.85-11.85 51.95-13.2 51.05-14.55 49.57-15.45 48.1-16.35 46.37-17.05 44.65-17.75 42.87-18.48 41.1-19.2 39.65-20.28 38.2-21.35 37.3-23.05 36.4-24.75 36.4-27.35L36.4-27.35Q36.4-30.1 37.4-31.9 38.4-33.7 40.05-34.75 41.7-35.8 43.62-36.23 45.55-36.65 47.4-36.65L47.4-36.65Q48.75-36.65 50.25-36.45 51.75-36.25 53.1-35.85 54.45-35.45 55.3-34.83 56.15-34.2 56.15-33.35L56.15-33.35Q56.15-32.95 55.95-32.43 55.75-31.9 55.35-31.48 54.95-31.05 54.35-31.05L54.35-31.05Q53.8-31.05 53-31.53 52.2-32 50.87-32.48 49.55-32.95 47.4-32.95L47.4-32.95Q45.6-32.95 44.02-32.45 42.45-31.95 41.52-30.8 40.6-29.65 40.6-27.75L40.6-27.75Q40.6-25.95 41.5-24.8 42.4-23.65 43.85-22.9 45.3-22.15 47.05-21.53 48.8-20.9 50.55-20.08 52.3-19.25 53.77-18.05 55.25-16.85 56.15-14.93 57.05-13 57.05-10.1L57.05-10.1Q57.05-6.5 55.62-4.17 54.2-1.85 51.75-0.73 49.3 0.4 46.1 0.4Z" opacity="1" transform="matrix(1,0,0,1,0,0)" fill="#ffffff" class="wordmark-text-0" data-fill-palette-color="quaternary" id="text-0"></path></svg></g></svg></g></svg></g></svg></g><g></g></svg></g></svg></g></svg></g></svg></g><defs></defs></svg><rect width="342.85155851775386" height="342.85155851775386" fill="none" stroke="none" visibility="hidden"></rect></g></svg></g></svg>